<?xml version="1.0" encoding="UTF-8" standalone="no"?>
<!DOCTYPE svg PUBLIC "-//W3C//DTD SVG 1.1//EN" "http://www.w3.org/Graphics/SVG/1.1/DTD/svg11.dtd">
<svg width="100%" height="100%" viewBox="0 0 2126 2440" version="1.1" xmlns="http://www.w3.org/2000/svg" xmlns:xlink="http://www.w3.org/1999/xlink" xml:space="preserve" xmlns:serif="http://www.serif.com/" style="fill-rule:evenodd;clip-rule:evenodd;stroke-linecap:round;stroke-linejoin:round;stroke-miterlimit:2;">
    <g transform="matrix(1,0,0,1,-1182.55,-1202.97)">
        <g transform="matrix(4.16667,0,0,4.16667,0,0)">
            <path d="M682.523,664.428L395.119,664.427L538.821,415.529L682.523,664.428ZM305.905,446.986L395.119,664.427L538.82,850.41L682.523,664.428L771.738,446.988L538.821,415.529L305.905,446.986Z" style="fill:none;stroke:rgb(196,196,196);stroke-width:10.69px;"/>
            <path d="M771.737,715.936L682.523,664.428" style="fill:none;stroke:rgb(196,196,196);stroke-width:10.69px;"/>
            <path d="M395.119,664.427L305.905,715.935" style="fill:none;stroke:rgb(196,196,196);stroke-width:10.69px;"/>
            <path d="M538.822,312.513L538.821,415.529" style="fill:none;stroke:rgb(196,196,196);stroke-width:10.69px;"/>
            <path d="M294.864,722.309L294.866,440.613L538.821,299.765L782.777,440.613L782.777,722.311L538.821,863.157L294.864,722.309Z" style="fill:none;stroke:rgb(196,196,196);stroke-width:22.11px;"/>
            <path d="M511.698,551.282C506.94,551.282 503.95,553.52 503.95,559.406L503.95,568.238L489.81,568.238L489.81,560.232C489.81,547.044 497.426,539.508 512.104,539.508C526.788,539.508 534.4,547.044 534.4,560.232C534.4,586.136 504.628,595.791 504.628,609.331C504.628,609.921 504.628,610.509 504.764,611.099L533.041,611.099L533.041,622.873L489.81,622.873L489.81,612.747C489.81,588.491 519.445,584.488 519.445,560.702C519.445,553.284 516.456,551.282 511.698,551.282Z" style="fill:rgb(196,196,196);fill-rule:nonzero;stroke:rgb(196,196,196);stroke-width:0.24px;stroke-linecap:butt;"/>
            <path d="M557.379,603.915C557.379,609.803 560.372,612.039 565.13,612.039C569.886,612.039 572.878,609.803 572.878,603.915L572.878,559.406C572.878,553.52 569.886,551.282 565.13,551.282C560.372,551.282 557.379,553.52 557.379,559.406L557.379,603.915ZM542.425,560.232C542.425,547.044 550.448,539.508 565.13,539.508C579.81,539.508 587.832,547.044 587.832,560.232L587.832,603.091C587.832,616.279 579.81,623.815 565.13,623.815C550.448,623.815 542.425,616.279 542.425,603.091L542.425,560.232Z" style="fill:rgb(196,196,196);fill-rule:nonzero;stroke:rgb(196,196,196);stroke-width:0.24px;stroke-linecap:butt;"/>
        </g>
    </g>
</svg>
