<?xml version="1.0" encoding="UTF-8" standalone="no"?>
<!DOCTYPE svg PUBLIC "-//W3C//DTD SVG 1.1//EN" "http://www.w3.org/Graphics/SVG/1.1/DTD/svg11.dtd">
<svg width="100%" height="100%" viewBox="0 0 1954 1705" version="1.1" xmlns="http://www.w3.org/2000/svg" xmlns:xlink="http://www.w3.org/1999/xlink" xml:space="preserve" xmlns:serif="http://www.serif.com/" style="fill-rule:evenodd;clip-rule:evenodd;stroke-linecap:round;stroke-linejoin:round;stroke-miterlimit:2;">
    <g transform="matrix(1,0,0,1,-14580,-1570.5)">
        <g transform="matrix(4.16667,0,0,4.16667,0,0)">
            <path d="M3733.68,387.972L3510.26,774.95L3957.1,774.95L3733.68,387.972Z" style="fill:none;stroke:rgb(196,196,196);stroke-width:22.11px;"/>
            <path d="M3733.68,387.972L3733.68,645.957" style="fill:none;stroke:rgb(196,196,196);stroke-width:10.69px;"/>
            <path d="M3510.26,774.95L3733.68,645.957" style="fill:none;stroke:rgb(196,196,196);stroke-width:10.69px;"/>
            <path d="M3957.1,774.95L3733.68,645.957" style="fill:none;stroke:rgb(196,196,196);stroke-width:10.69px;"/>
            <path d="M3736.94,720.171L3736.94,697.774L3722.13,720.171L3736.94,720.171ZM3708.4,720.171L3735.59,679.267L3751.9,679.267L3751.9,720.171L3758.97,720.171L3758.97,728.819L3751.9,728.819L3751.9,739.801L3736.94,739.801L3736.94,728.819L3708.4,728.819L3708.4,720.171Z" style="fill:rgb(196,196,196);fill-rule:nonzero;stroke:rgb(196,196,196);stroke-width:0.42px;stroke-linecap:butt;"/>
            <path d="M3796.32,606.027L3776.93,617.225L3803.73,618.857L3796.32,606.027ZM3810.6,630.748L3761.58,627.656L3753.42,613.526L3788.85,593.074L3785.31,586.953L3792.8,582.629L3796.33,588.75L3805.85,583.258L3813.32,596.211L3803.81,601.703L3818.09,626.424L3810.6,630.748Z" style="fill:rgb(196,196,196);fill-rule:nonzero;stroke:rgb(196,196,196);stroke-width:0.4px;stroke-linecap:butt;"/>
            <path d="M3667.78,611.675L3687.18,622.873L3675.19,598.844L3667.78,611.675ZM3682.05,586.953L3703.89,630.949L3695.73,645.079L3660.3,624.627L3656.77,630.748L3649.28,626.424L3652.81,620.303L3643.3,614.812L3650.78,601.859L3660.29,607.35L3674.57,582.629L3682.05,586.953Z" style="fill:rgb(196,196,196);fill-rule:nonzero;stroke:rgb(196,196,196);stroke-width:0.4px;stroke-linecap:butt;"/>
        </g>
    </g>
</svg>
