<?xml version="1.0" encoding="UTF-8" standalone="no"?>
<!DOCTYPE svg PUBLIC "-//W3C//DTD SVG 1.1//EN" "http://www.w3.org/Graphics/SVG/1.1/DTD/svg11.dtd">
<svg width="100%" height="100%" viewBox="0 0 2006 2302" version="1.1" xmlns="http://www.w3.org/2000/svg" xmlns:xlink="http://www.w3.org/1999/xlink" xml:space="preserve" xmlns:serif="http://www.serif.com/" style="fill-rule:evenodd;clip-rule:evenodd;stroke-linecap:round;stroke-linejoin:round;stroke-miterlimit:2;">
    <g transform="matrix(1,0,0,1,-9501.99,-1272.01)">
        <g transform="matrix(4.16667,0,0,4.16667,0,0)">
            <g>
                <path d="M2750.74,714.024L2750.74,448.898L2521.14,316.336L2291.53,448.898L2291.53,714.024L2521.14,846.586L2750.74,714.024Z" style="fill:none;stroke:rgb(196,196,196);stroke-width:22.11px;"/>
                <path d="M2521.14,329.099L2302.59,707.641L2739.69,707.641L2521.14,329.099Z" style="fill:none;stroke:rgb(196,196,196);stroke-width:10.69px;"/>
                <path d="M2521.14,608.203C2525.9,608.203 2529.43,606.203 2529.57,598.902L2529.57,591.248C2529.57,584.772 2526.44,581.946 2521.14,581.946C2515.84,581.946 2512.71,584.772 2512.71,591.248L2512.71,598.902C2512.71,606.203 2516.38,608.203 2521.14,608.203ZM2512.71,561.458C2512.71,568.052 2516.25,570.172 2521.14,570.172C2525.9,570.172 2529.57,568.052 2529.57,561.458L2529.57,556.866C2529.57,549.448 2525.9,547.446 2521.14,547.446C2516.38,547.446 2512.71,549.448 2512.71,556.866L2512.71,561.458ZM2521.14,619.979C2506.05,619.979 2497.76,612.443 2497.76,599.255L2497.76,592.779C2497.76,584.89 2500.48,578.768 2507,575.588C2500.75,572.644 2497.76,567.11 2497.76,558.986L2497.76,556.396C2497.76,543.208 2506.05,535.672 2521.14,535.672C2536.23,535.672 2544.52,543.208 2544.52,556.396L2544.52,558.986C2544.52,567.11 2541.4,572.644 2535.28,575.588C2541.8,578.768 2544.52,584.89 2544.52,592.779L2544.52,599.255C2544.52,612.443 2536.23,619.979 2521.14,619.979Z" style="fill:rgb(196,196,196);fill-rule:nonzero;stroke:rgb(196,196,196);stroke-width:0.24px;stroke-linecap:butt;"/>
            </g>
        </g>
    </g>
</svg>
